<svg width="24" height="24" viewBox="0 0 24 24" fill="none" xmlns="http://www.w3.org/2000/svg">
<path d="M3.47363 12.0001H4.421M11.9999 3.47375V4.42112M19.5789 12.0001H20.5263M5.93679 5.93691L6.59995 6.60007M18.0631 5.93691L17.3999 6.60007M9.821 16.7369H14.1789M9.15784 15.7895C8.3625 15.193 7.775 14.3614 7.47857 13.4124C7.18214 12.4635 7.1918 11.4453 7.50619 10.5021C7.82057 9.55899 8.42375 8.73865 9.23027 8.15734C10.0368 7.57604 11.0058 7.26323 11.9999 7.26323C12.9941 7.26323 13.9631 7.57604 14.7696 8.15734C15.5761 8.73865 16.1793 9.55899 16.4937 10.5021C16.8081 11.4453 16.8178 12.4635 16.5213 13.4124C16.2249 14.3614 15.6374 15.193 14.8421 15.7895C14.4722 16.1557 14.1937 16.6038 14.0291 17.0975C13.8645 17.5912 13.8185 18.1168 13.8947 18.6316C13.8947 19.1342 13.6951 19.6161 13.3397 19.9714C12.9844 20.3268 12.5025 20.5264 11.9999 20.5264C11.4974 20.5264 11.0155 20.3268 10.6602 19.9714C10.3048 19.6161 10.1052 19.1342 10.1052 18.6316C10.1814 18.1168 10.1354 17.5912 9.97081 17.0975C9.80622 16.6038 9.52773 16.1557 9.15784 15.7895Z" stroke="black" stroke-linecap="round" stroke-linejoin="round"/>
</svg>
